<svg height="512pt" viewBox="0 -46 512.00014 512" width="512pt" xmlns="http://www.w3.org/2000/svg"><path d="m448.589844 162.660156v242.339844h-385.179688v-242.339844l171.761719-106.21875c6.390625-3.960937 13.558594-5.941406 20.71875-5.960937 7.242187-.019531 14.480469 1.960937 20.941406 5.960937zm0 0" fill="#d9eeff"/><path d="m448.589844 162.660156v242.339844h-192.699219v-354.519531c7.238281-.019531 14.480469 1.960937 20.941406 5.960937zm0 0" fill="#b0e3fc"/><path d="m468.566406 405c0 8.28125-6.714844 15-15 15h-395.128906c-8.292969 0-15-6.71875-15-15s6.707031-15 15-15h395.128906c8.285156 0 15 6.71875 15 15zm0 0" fill="#00db7e"/><path d="m165.777344 0h-21.546875c-17.402344 0-31.5625 14.144531-31.5625 31.527344v120.9375l84.664062-52.355469v-68.582031c0-17.382813-14.15625-31.527344-31.554687-31.527344zm0 0" fill="#fe8d7d"/><path d="m509.761719 203.109375c-2.839844 4.589844-7.75 7.121094-12.769531 7.121094-2.703126 0-5.421876-.730469-7.882813-2.25l-228.058594-141.03125c-1.589843-.980469-3.378906-1.460938-5.160156-1.4375-1.710937.019531-3.410156.5-4.941406 1.4375l-228.058594 141.03125c-7.050781 4.359375-16.289063 2.179687-20.648437-4.871094-4.351563-7.039063-2.179688-16.289063 4.871093-20.640625l228.058594-141.027344c6.390625-3.960937 13.558594-5.941406 20.71875-5.960937 7.242187-.019531 14.480469 1.960937 20.941406 5.960937l228.058594 141.027344c7.039063 4.351562 9.21875 13.601562 4.871094 20.640625zm0 0" fill="#1b6aa6"/><path d="m509.761719 203.109375c-2.839844 4.589844-7.75 7.121094-12.769531 7.121094-2.703126 0-5.421876-.730469-7.882813-2.25l-228.058594-141.03125c-1.589843-.980469-3.378906-1.460938-5.160156-1.4375v-30.03125c7.238281-.019531 14.480469 1.960937 20.941406 5.960937l228.058594 141.027344c7.039063 4.351562 9.21875 13.601562 4.871094 20.640625zm0 0" fill="#173755"/><path d="m468.566406 405c0 8.28125-6.714844 15-15 15h-197.675781v-30h197.675781c8.285156 0 15 6.71875 15 15zm0 0" fill="#00a863"/><path d="m270.859375 340.789062v7.429688c0 8.28125-6.695313 15-14.96875 15-8.265625 0-14.972656-6.71875-14.972656-15v-7.429688c0-8.289062 6.707031-15 14.972656-15 8.273437 0 14.96875 6.710938 14.96875 15zm0 0" fill="#fff"/><path d="m301.722656 304.058594c-2.9375 3.960937-7.457031 6.050781-12.027344 6.050781-3.105468 0-6.238281-.960937-8.921874-2.960937-7.238282-5.398438-15.820313-8.25-24.882813-8.25-8.960937 0-17.535156 2.800781-24.730469 8.089843-6.667968 4.910157-16.039062 3.472657-20.929687-3.207031s-3.464844-16.070312 3.203125-20.972656c12.375-9.097656 27.078125-13.910156 42.457031-13.910156 15.550781 0 30.3125 4.902343 42.757813 14.179687 6.625 4.941406 8.003906 14.34375 3.074218 20.980469zm0 0" fill="#fff"/><path d="m333.917969 260.050781c-2.933594 3.980469-7.464844 6.089844-12.054688 6.089844-3.085937 0-6.210937-.960937-8.882812-2.941406-16.628907-12.308594-36.339844-18.820313-57.089844-18.820313-20.632813 0-40.332031 6.449219-56.910156 18.640625-6.667969 4.902344-16.027344 3.460938-20.929688-3.21875-4.890625-6.671875-3.453125-16.0625 3.214844-20.960937 21.746094-16 47.578125-24.460938 74.625-24.460938 27.195313 0 53.074219 8.542969 74.882813 24.691406 6.648437 4.929688 8.054687 14.320313 3.144531 20.980469zm0 0" fill="#fff"/><path d="m365.765625 216.148438c-4.890625 6.679687-14.261719 8.121093-20.929687 3.222656-25.878907-19.042969-56.726563-29.109375-88.945313-29.109375-32.328125 0-62.988281 10.128906-88.925781 29.296875-2.675782 1.972656-5.789063 2.921875-8.875 2.921875-4.589844 0-9.121094-2.109375-12.054688-6.089844-4.910156-6.671875-3.492187-16.0625 3.164063-20.980469 31.121093-22.988281 67.917969-35.148437 106.691406-35.148437 38.636719 0 75.613281 12.078125 106.671875 34.917969 6.667969 4.910156 8.101562 14.289062 3.203125 20.96875zm0 0" fill="#fff"/><g fill="#d9eeff"><path d="m270.859375 340.789062v7.429688c0 8.28125-6.695313 15-14.96875 15v-37.429688c8.273437 0 14.96875 6.710938 14.96875 15zm0 0"/><path d="m301.722656 304.058594c-2.9375 3.960937-7.457031 6.050781-12.027344 6.050781-3.105468 0-6.238281-.960937-8.921874-2.960937-7.238282-5.398438-15.820313-8.25-24.882813-8.25v-30c15.550781 0 30.3125 4.902343 42.757813 14.179687 6.625 4.941406 8.003906 14.34375 3.074218 20.980469zm0 0"/><path d="m333.917969 260.050781c-2.933594 3.980469-7.464844 6.089844-12.054688 6.089844-3.085937 0-6.210937-.960937-8.882812-2.941406-16.628907-12.308594-36.339844-18.820313-57.089844-18.820313v-30c27.195313 0 53.074219 8.542969 74.882813 24.691406 6.648437 4.929688 8.054687 14.320313 3.144531 20.980469zm0 0"/><path d="m365.765625 216.148438c-4.890625 6.679687-14.261719 8.121093-20.929687 3.222656-25.878907-19.042969-56.726563-29.109375-88.945313-29.109375v-30c38.632813 0 75.613281 12.078125 106.671875 34.917969 6.667969 4.910156 8.101562 14.289062 3.203125 20.96875zm0 0"/></g></svg>